<svg width="144" height="85" viewBox="0 0 144 85" fill="none" xmlns="http://www.w3.org/2000/svg">
<path fill-rule="evenodd" clip-rule="evenodd" d="M0.266155 0.220749C0.245614 0.343692 0.203345 0.611609 0.172088 0.816118C0.0178871 1.82348 0.602836 2.15094 3.13911 2.4784C6.40352 2.89992 7.81366 3.66049 8.71296 5.485C9.36668 6.81179 9.38632 7.13984 9.5316 19.1982L9.68044 31.5521L15.095 31.6331L20.5096 31.7143L20.621 19.5768C20.7445 6.15242 20.7906 5.78508 22.5916 3.98438C24.0696 2.50637 26.1019 2.0911 30.6672 2.33401C33.8807 2.50518 36.7069 3.12496 38.4913 4.05046C41.2919 5.50257 43.6469 8.69197 44.6703 12.4184C45.6607 16.0239 45.6822 23.0306 44.7141 26.6061C44.3423 27.979 43.7913 29.613 43.4897 30.2375C43.1878 30.8618 43.0149 31.4467 43.1051 31.5369C43.1953 31.6271 45.099 31.7009 47.3352 31.7009C51.9963 31.7009 51.6698 31.8638 53.8584 28.4496C55.7885 25.4385 56.6483 22.3902 56.6771 18.4539C56.706 14.5382 56.0279 11.9617 54.2451 9.21322C51.0557 4.29635 45.99 1.48591 38.1093 0.261529C36.2896 -0.0212712 0.312891 -0.0599682 0.266155 0.220749ZM72.1329 0.347861C72.0588 0.54076 72.0424 1.00753 72.0963 1.38529C72.1847 2.00477 72.4336 2.10628 74.6213 2.41617C77.8872 2.87907 79.0318 3.29583 79.9129 4.34309C81.2873 5.97648 81.365 6.72368 81.4951 19.5768L81.6181 31.7143L87.0273 31.6331L92.4368 31.5521L92.4609 20.2401C92.4919 5.79252 92.7553 4.4321 95.7938 3.02851C97.0512 2.44773 97.6716 2.38164 101.665 2.40426C106.545 2.43225 108.49 2.79781 111.84 4.3166C115.838 6.1292 118.785 10.281 119.843 15.5893C120.521 18.9916 120.31 26.4721 119.454 29.3864C119.131 30.4873 118.936 31.4586 119.022 31.5446C119.108 31.6307 121.365 31.7009 124.037 31.7009H128.895L129.75 29.9892C131.611 26.2682 132.031 24.4514 132.006 20.2401C131.987 17.0295 131.869 16.0403 131.31 14.4352C128.606 6.66116 121.544 1.86546 110.447 0.26659C107.651 -0.136178 72.2901 -0.0611584 72.1329 0.347861ZM8.91271 38.9198C8.83888 40.0855 9.00082 46.7048 9.11007 46.99C9.19908 47.2216 9.95669 47.2817 11.4972 47.179C13.4069 47.0519 13.8415 46.921 14.3219 46.3277C15.0727 45.4004 15.0462 44.0748 14.2621 43.3443C13.6742 42.7965 13.6647 42.7162 14.1133 42.0758C14.8387 41.0399 14.717 39.8798 13.8078 39.1648C13.1875 38.6766 12.5966 38.5477 10.9798 38.5477C9.55601 38.5477 8.92908 38.6605 8.91271 38.9198ZM19.4853 38.9356C19.4034 39.1487 19.3742 41.0578 19.4204 43.1776L19.504 47.0317L22.4065 47.1168C24.2655 47.1716 25.3089 47.0912 25.3089 46.8936C25.3089 46.7111 24.4828 46.5852 23.2846 46.5852C20.9475 46.5852 20.5459 46.317 20.5459 44.7571C20.5459 43.4363 20.8511 43.1984 22.6297 43.1341C24.6025 43.063 24.7135 43.0406 24.7135 42.7153C24.7135 42.5474 23.872 42.4176 22.7842 42.4176C20.9963 42.4176 20.8418 42.3652 20.6757 41.7037C20.5772 41.3111 20.5412 40.6746 20.5956 40.2897C20.6864 39.6491 20.8695 39.5771 22.7554 39.4407C24.0253 39.349 24.8627 39.149 24.9383 38.9198C25.1175 38.3753 19.6943 38.3908 19.4853 38.9356ZM29.3773 38.7462C28.9049 39.2184 29.2672 39.4407 30.5094 39.4407H31.8401L31.9235 43.2362C32.0017 46.8055 32.0422 47.0317 32.6022 47.0317C33.1651 47.0317 33.1984 46.8284 33.2118 43.3106L33.2258 39.5896L33.956 39.5062C35.3522 39.347 36.0255 39.1299 36.0255 38.8397C36.0255 38.5131 29.6994 38.4241 29.3773 38.7462ZM40.102 38.7379C39.7073 39.1326 40.2682 39.4407 41.3815 39.4407C42.8244 39.4407 42.9372 39.7414 42.8681 43.397C42.7961 47.2064 42.7922 47.1805 43.4677 47.1805C44.0324 47.1805 44.063 46.982 44.063 43.3276V39.475L45.305 39.3833C45.9882 39.333 46.6023 39.1246 46.6696 38.9198C46.7625 38.6373 46.0087 38.5477 43.5421 38.5477C41.7548 38.5477 40.2068 38.6334 40.102 38.7379ZM51.1191 38.7355C50.727 39.1273 50.8767 46.7864 51.2819 47.0755C51.7624 47.4181 56.5658 47.2225 56.5658 46.8602C56.5658 46.709 55.7219 46.5852 54.6904 46.5852C52.5122 46.5852 52.1005 46.2946 52.1005 44.7571C52.1005 43.4833 52.3244 43.2707 53.6672 43.2699C55.0586 43.269 56.2681 43.0064 56.2681 42.7051C56.2681 42.562 55.3638 42.4051 54.2587 42.3568L52.2494 42.2687V40.9292V39.5896L54.2632 39.4407C55.3709 39.3589 56.2759 39.1579 56.2744 38.9942C56.2714 38.6551 51.4418 38.4125 51.1191 38.7355ZM61.5273 38.7462C61.4181 38.8552 61.3288 40.7976 61.3288 43.0627C61.3288 46.982 61.3573 47.1805 61.9241 47.1805C62.4475 47.1805 62.5195 46.982 62.5195 45.5433C62.5195 43.9551 62.5442 43.906 63.3381 43.9075C64.0047 43.9087 64.3506 44.2129 65.1987 45.5433C65.8095 46.5015 66.4561 47.1782 66.7615 47.179C67.3872 47.1808 67.4471 46.497 66.8633 46.0124C66.6329 45.8213 66.2287 45.2105 65.9652 44.6553C65.4993 43.6735 65.5068 43.625 66.2355 42.8963C67.4825 41.6493 67.1744 39.7375 65.5904 38.8939C64.8968 38.5248 61.8592 38.414 61.5273 38.7462ZM77.5338 38.9356C77.452 39.1487 77.4228 41.056 77.4689 43.174C77.5425 46.5652 77.6148 47.0362 78.0735 47.1243C78.5186 47.2097 78.5945 46.9859 78.5945 45.59C78.5945 43.0648 79.6102 43.0999 81.2677 45.6829C81.8669 46.6167 82.4412 47.1805 82.793 47.1805C83.5486 47.1805 83.509 46.9659 82.4644 45.3944C81.9747 44.6577 81.5734 43.9605 81.5725 43.845C81.5719 43.7298 81.9062 43.3005 82.3155 42.8912C83.6331 41.5736 83.1937 39.5187 81.4531 38.857C80.2779 38.4101 77.7157 38.4616 77.5338 38.9356ZM87.9334 38.9198C87.7909 39.1246 87.7149 41.0667 87.765 43.2362L87.8558 47.1805H90.501C93.7338 47.1805 94.4057 46.6483 91.33 46.5238L89.1623 46.4363V44.8095V43.1826L90.9231 43.1722C92.0591 43.1654 92.7283 43.0296 92.8083 42.7897C92.8997 42.517 92.4088 42.4176 90.9731 42.4176H89.0135V40.9428V39.4678L90.999 39.38C92.2561 39.324 93.0298 39.1553 93.1078 38.9198C93.1995 38.6417 92.594 38.5477 90.712 38.5477C89.034 38.5477 88.1067 38.6718 87.9334 38.9198ZM100.434 39.0466C100.331 39.3452 99.6619 41.0762 98.9466 42.893C98.2316 44.71 97.6463 46.4292 97.6463 46.7135C97.6463 47.5375 98.3438 47.0865 98.9138 45.8939C99.4306 44.8125 99.4589 44.7991 101.223 44.7991H103.009L103.486 45.9898C103.807 46.7915 104.146 47.1805 104.526 47.1805C104.835 47.1805 105.088 47.0915 105.088 46.9826C105.088 46.6212 103.256 41.9969 102.455 40.3338C101.638 38.6406 100.766 38.0848 100.434 39.0466ZM109.519 38.8981C109.501 39.1148 109.498 40.6984 109.515 42.4176C109.531 44.1367 109.546 45.9118 109.549 46.3619L109.554 47.1805H112.233C113.82 47.1805 114.912 47.0594 114.912 46.8829C114.912 46.7129 114.022 46.5852 112.837 46.5852H110.762L110.679 42.6444C110.605 39.1669 110.534 38.6921 110.075 38.6039C109.788 38.5489 109.538 38.6813 109.519 38.8981ZM117.889 38.9942C117.889 39.3246 118.235 39.4407 119.22 39.4407H120.55L120.634 43.2362C120.714 46.9165 120.737 47.0347 121.387 47.127C122.052 47.2213 122.056 47.1957 122.056 43.3315V39.4407H123.215C123.971 39.4407 124.434 39.2853 124.546 38.9942C124.692 38.6132 124.215 38.5477 121.303 38.5477C118.467 38.5477 117.889 38.6233 117.889 38.9942ZM128.606 38.8489C128.606 39.0147 129.242 40.1069 130.02 41.2766C131.186 43.0311 131.44 43.6554 131.471 44.8452C131.529 47.1162 131.549 47.1805 132.178 47.1805C132.708 47.1805 132.773 46.982 132.773 45.3578C132.773 43.7214 132.911 43.308 134.118 41.3194C135.339 39.3095 135.548 38.5477 134.882 38.5477C134.751 38.5477 134.148 39.3514 133.541 40.3338C132.935 41.3161 132.347 42.1163 132.234 42.1116C132.121 42.1071 131.494 41.3033 130.84 40.3254C130.141 39.28 129.436 38.5477 129.128 38.5477C128.841 38.5477 128.606 38.6831 128.606 38.8489ZM12.7689 39.7092C13.3667 40.0876 13.2726 41.5579 12.6201 42.0354C12.3132 42.2601 11.66 42.4045 11.1689 42.3563C10.3291 42.2741 10.2705 42.1842 10.185 40.8547L10.0942 39.4407L11.2269 39.4452C11.85 39.4479 12.5439 39.5667 12.7689 39.7092ZM65.3237 40.0099C66.5201 41.3319 65.1171 43.3559 63.3176 42.9043C62.5901 42.7218 62.5195 42.5768 62.5195 41.2709C62.5195 40.4826 62.6088 39.7482 62.7181 39.6393C63.139 39.2181 64.8242 39.458 65.3237 40.0099ZM81.4651 40.2079C82.1727 41.2882 81.7261 42.4572 80.4681 42.818C78.9249 43.2603 78.5945 42.9552 78.5945 41.0872V39.4407H79.7784C80.722 39.4407 81.0641 39.5964 81.4651 40.2079ZM102.027 42.4176C102.553 43.8861 102.542 43.906 101.219 43.906C99.8257 43.906 99.7018 43.472 100.541 41.5343C101.108 40.2254 101.277 40.3257 102.027 42.4176ZM13.3167 43.7944C14.2713 45.1 13.4328 46.3664 11.5862 46.4072L10.2758 46.4363L10.1826 45.1372C10.0406 43.157 10.2246 42.9079 11.6848 43.1034C12.3736 43.196 13.1056 43.5059 13.3167 43.7944ZM9.71497 55.0867C9.61405 55.3496 9.5316 59.6997 9.5316 64.7538C9.5316 74.9227 9.35447 76.4519 7.99703 77.9981C7.08314 79.0388 4.80614 79.9259 3.04831 79.9259C1.44201 79.9259 0.325392 80.2807 0.145293 80.8484C-0.321179 82.3181 -0.844806 82.2746 18.9137 82.4068C29.4318 82.4773 38.5172 82.4092 40.0443 82.2484C49.881 81.2128 57.6815 76.2194 61.0242 68.8184C62.3808 65.8147 62.9092 62.8078 62.7609 58.9337C62.6779 56.7639 62.4927 55.3957 62.2415 55.093C61.9119 54.6959 61.0067 54.6227 56.4199 54.6227H50.9887L50.9705 59.0135C50.9437 65.5843 49.736 69.8373 46.9479 73.1827C43.3587 77.489 37.6262 79.655 29.6253 79.7279C25.9769 79.7613 25.291 79.6889 24.1182 79.1451C22.5473 78.4166 21.9492 77.8037 21.2386 76.1938C20.788 75.173 20.6963 73.6513 20.5575 64.8928L20.3971 54.7715L15.1477 54.6902C10.5562 54.6194 9.87512 54.6691 9.71497 55.0867ZM81.7699 54.8212C81.6606 54.9302 81.5686 58.9156 81.5654 63.6773C81.5591 72.8853 81.3507 75.4305 80.4595 77.1896C79.712 78.6655 77.8494 79.5737 74.8898 79.9056C73.6196 80.0482 72.4497 80.2956 72.2898 80.4555C72.1297 80.6156 72.0427 81.1089 72.0966 81.5518L72.1943 82.3574L86.9297 82.3571H101.665L101.755 81.3307C101.838 80.3891 101.767 80.2885 100.899 80.1149C100.379 80.011 99.5226 79.9259 98.996 79.9259C97.4537 79.9259 95.2517 79.1317 94.3206 78.2395C92.722 76.7082 92.5309 75.2775 92.5243 64.8074C92.5214 59.6276 92.4526 55.2174 92.3716 55.0064C92.2591 54.7137 91.0064 54.6227 87.0964 54.6227C84.2758 54.6227 81.8788 54.712 81.7699 54.8212ZM115.621 55.0549C115.529 55.2927 115.534 55.6157 115.631 55.7732C115.729 55.9304 116.726 60.19 117.849 65.2387C120.175 75.6993 121.012 78.0767 123.261 80.5992C125.826 83.4779 129.852 84.7716 134.132 84.0929C137.304 83.5898 139.122 82.6092 141.588 80.0694C144.014 77.5718 144.439 76.7528 143.618 76.153C142.745 75.5148 142.411 75.6657 140.598 77.5185C136.751 81.4497 133.082 80.3275 131.369 74.6953C131.024 73.5608 129.783 68.6582 128.612 63.8006C127.127 57.6453 126.345 54.9162 126.031 54.7956C125.783 54.7006 123.376 54.6227 120.683 54.6227C116.677 54.6227 115.756 54.7012 115.621 55.0549Z" fill="white"/>
</svg>
